<svg xmlns="http://www.w3.org/2000/svg" width="80" height="20" viewBox="0 0 20 5" fill="none" class="injected-svg" data-src="aa13499d/static/media/bri.b7b96ff4.svg" xmlns:xlink="http://www.w3.org/1999/xlink"><path fill-rule="evenodd" clip-rule="evenodd" d="M3.986 0c.397 0 .719.329.719.734l-.002 3.228a.726.726 0 0 1-.718.734H.707A.727.727 0 0 1 0 3.962V.734C0 .329.321 0 .718 0h3.268zM1.28.373H.917c-.21 0-.371.17-.38.381v3.172c0 .219.176.396.391.396l.179-.003c.397 0 .718-.291.718-.651a.615.615 0 0 0-.18-.431l-.866-.88.925-.936c.106-.11.17-.261.17-.427 0-.336-.266-.621-.594-.621zm1.301 0h-.392c.113.162.183.385.183.637 0 .319-.112.598-.28.756l-.564.58.553.563c.16.18.261.45.261.755 0 .25-.186.652-.186.652h1.616a.4.4 0 0 0 .21-.053L2.098 2.347l.907-.926a.613.613 0 0 0 .171-.427c0-.336-.266-.621-.595-.621zm.908-.007c.113.162.184.39.184.644 0 .275-.083.52-.214.684l-.643.652 1.35 1.372L4.167.77a.393.393 0 0 0-.39-.395L3.488.366zm14.849.812c.415 0 .754.188.754.59 0 .311-.147.519-.45.589v.007c.202.053.215.23.333.515l.228.637h-.651l-.134-.422c-.128-.402-.208-.503-.44-.503h-.131v.925h-.625V1.178h1.116zm-2.077 0c.437 0 .762.191.762.593 0 .295-.15.459-.413.546v.006c.313.064.474.232.474.516 0 .56-.494.677-.913.677h-.987V1.178h1.077zm-3.382 0v.955h.006l.705-.955h.752l-.866 1.088.933 1.25h-.795l-.729-1.062h-.006v1.062h-.625V1.178h.625zm-2.197 0 .793 1.588h.006l-.01-1.588h.57v2.338h-.775l-.819-1.598h-.006l.02 1.598h-.574V1.178h.795zm-1.785 0L9.8 3.516h-.685l-.174-.5h-.88l-.185.5h-.634l.889-2.338h.766zm-2.408 0c.436 0 .762.191.762.593 0 .295-.151.459-.413.546v.006c.313.064.473.232.473.516 0 .56-.493.677-.913.677h-.987V1.178H6.49zm13.511 0v2.338h-.624V1.178H20zm-4 1.347h-.192v.549h.185c.228 0 .466-.034.466-.271 0-.255-.244-.278-.46-.278zm-9.773 0h-.191v.549h.184c.228 0 .467-.034.467-.271 0-.255-.245-.278-.46-.278zm2.287-.864h-.007l-.302.914h.588l-.279-.914zm9.498-.04h-.165v.528h.165c.201 0 .456-.006.456-.27 0-.218-.218-.258-.456-.258zm-2.023 0h-.18v.482h.174c.204 0 .416-.05.416-.248 0-.214-.202-.234-.41-.234zm-9.772 0h-.181v.482h.175c.204 0 .416-.05.416-.248 0-.214-.202-.234-.41-.234z" fill="#00539A"></path></svg>