<svg xmlns="http://www.w3.org/2000/svg" width="120" height="20" viewBox="0 0 20 3" fill="none" class="injected-svg" data-src="aa13499d/static/media/cimb.def826e6.svg" xmlns:xlink="http://www.w3.org/1999/xlink"><path fill-rule="evenodd" clip-rule="evenodd" d="M0 2.91h3.152V0H0v2.91z" fill="#7B141F"></path><path fill-rule="evenodd" clip-rule="evenodd" d="m.397.507.756.943-.756 1.03h1.689l.844-1.03-.844-.943H.397z" fill="#DF1F26"></path><path fill-rule="evenodd" clip-rule="evenodd" d="m.397.507.756.942H2.93L2.086.507H.397z" fill="#fff"></path><path fill-rule="evenodd" clip-rule="evenodd" d="M5.287 1.046a.47.47 0 0 0-.375-.16c-.33 0-.574.266-.574.63 0 .366.243.633.56.633a.478.478 0 0 0 .408-.21l.364.267c-.165.233-.445.341-.717.341-.618 0-1.07-.401-1.07-1.03s.452-1.03 1.07-1.03c.222 0 .502.075.67.288l-.336.271z" fill="#7B141F"></path><mask id="a-14" style="mask-type:luminance" maskUnits="userSpaceOnUse" x="0" y="0" width="20" height="3"><path fill-rule="evenodd" clip-rule="evenodd" d="M0 2.91h20V0H0v2.91z" fill="#fff"></path></mask><g mask="url(#a-14)" fill-rule="evenodd" clip-rule="evenodd" fill="#7B141F"><path d="M5.903 2.497h.436V.537h-.436v1.96zM6.736.537h.661l.457 1.28h.005l.46-1.28h.657v1.96H8.54V.994h-.005l-.521 1.503H7.68L7.179.994h-.006v1.503h-.437V.537zM9.816 2.132h.393c.136 0 .291-.058.291-.23 0-.185-.21-.216-.353-.216h-.33v.446zm0-.811h.317c.134 0 .275-.056.275-.213 0-.163-.157-.205-.295-.205h-.297v.418zM9.38.537h.739c.347 0 .725.072.725.498 0 .22-.137.368-.341.432v.006a.47.47 0 0 1 .434.48c0 .409-.393.545-.746.545H9.38V.537zM11.492.568h.288l1.114 1.598h.006V.568h.228v1.925h-.288L11.726.894h-.005v1.599h-.229V.568zM13.607 2.493h.229V.568h-.23v1.925zM15.043.862h-.006l-.4.946h.786l-.38-.946zm-.104-.293h.215l.818 1.924h-.266l-.196-.473h-.962l-.199.473h-.258L14.94.569zM17.864 2.362a1.48 1.48 0 0 1-.72.18c-.598 0-1.028-.408-1.028-1.012 0-.606.459-1.011 1.035-1.011.253 0 .498.068.68.253l-.17.18a.724.724 0 0 0-.526-.22c-.44 0-.775.33-.775.798 0 .46.324.8.798.8.154 0 .336-.041.477-.112v-.59h-.443v-.212h.672v.946zM19.07.862h-.005l-.4.946h.786l-.38-.946zm-.102-.293h.215L20 2.493h-.266l-.196-.473h-.962l-.199.473h-.257l.848-1.924z"></path></g></svg>