<svg xmlns="http://www.w3.org/2000/svg" width="80" height="20" viewBox="0 0 22 6" fill="none" class="injected-svg" data-src="aa13499d/static/media/danamon.56d62206.svg" xmlns:xlink="http://www.w3.org/1999/xlink"><path fill-rule="evenodd" clip-rule="evenodd" d="m17.025 1.585.043-.003h4.889c.041 0 .042.001.042.045V4.693a4.647 4.647 0 0 1-.099-.021l-.414-.096-.307-.067c-.135-.03-.27-.063-.404-.094l-.194-.043-.296-.068-.306-.07c-.097-.021-.195-.045-.293-.068l-.197-.043-.294-.068-.202-.045a69 69 0 0 1-.542-.125l-.244-.057-.239-.054-.207-.048-.292-.064c-.101-.024-.202-.049-.304-.072-.044-.01-.089-.018-.133-.027a.056.056 0 0 1-.008-.009V1.585z" fill="#F8A828"></path><path fill-rule="evenodd" clip-rule="evenodd" d="M17.025 1.585V3.554c-.009 0-.018.002-.025 0l-.216-.045-.471-.099c-.226-.047-.452-.096-.677-.144l-.686-.147-.763-.16c-.129-.026-.257-.056-.385-.083l-.63-.132-.309-.068-.346-.071-.335-.069-.36-.078-.258-.057-.386-.079-.435-.092-.686-.145-.503-.109-.602-.125-.356-.076-.662-.14-.176-.034-.036-.01a4.129 4.129 0 0 1-.038-.01l.001-.004h2.658c.18 0 .358.003.537.003l5.059.001 1.043.001.043.003z" fill="#F17523"></path><path fill-rule="evenodd" clip-rule="evenodd" d="m7.758 1.601.176.034.663.14.355.076.602.125.503.11.686.145.434.092.387.078c.086.018.171.039.258.057l.36.078.335.07.347.07.309.068c.21.044.42.087.629.132.128.027.256.057.385.084l.762.159.687.147.677.144.47.1.216.044c.009.002.018 0 .025 0l.008.009v1.13l-.192-.063a38.231 38.231 0 0 0-.323-.107l-.314-.106-.323-.106-.276-.093-.326-.107-.276-.094-.323-.106-.276-.093c-.108-.036-.216-.07-.325-.107l-.272-.092-.329-.108-.315-.107c-.11-.036-.22-.07-.329-.107-.072-.024-.144-.05-.216-.073l-.26-.086-.301-.1-.299-.1-.3-.1-.304-.101-.343-.113c-.106-.036-.21-.074-.317-.11-.117-.039-.235-.075-.352-.114-.12-.04-.24-.082-.36-.12-.12-.041-.243-.078-.364-.119l-.427-.146-.267-.088c-.11-.037-.22-.075-.331-.111-.093-.032-.187-.06-.28-.091l-.343-.114c-.004-.001-.008-.007-.011-.01z" fill="#FDC938"></path><mask id="a-13" style="mask-type:alpha" maskUnits="userSpaceOnUse" x="0" y="0" width="4" height="2"><path d="M0 0h3.581v1.576H0V0z" fill="#fff"></path></mask><g mask="url(#a-13)"><path fill-rule="evenodd" clip-rule="evenodd" d="M3.581 1.575H0V0l.1.017.763.158.487.1.705.142.445.092.466.094c.174.035.348.073.52.109l.09.016a.024.024 0 0 1 .005.005v.842z" fill="#F17523"></path></g><path fill-rule="evenodd" clip-rule="evenodd" d="M.518 5.214c.094-.006.183-.007.271-.019a.537.537 0 0 0 .345-.17.674.674 0 0 0 .154-.383 2.203 2.203 0 0 0 0-.55.893.893 0 0 0-.123-.377c-.068-.107-.16-.19-.292-.2-.116-.01-.232-.006-.349-.008l-.006.004v1.703zM0 5.504V3.212l.023-.002c.295 0 .591-.003.886.003a.88.88 0 0 1 .497.152c.155.108.25.258.314.432.081.22.105.45.09.684a1.97 1.97 0 0 1-.07.438.75.75 0 0 1-.64.558 2.194 2.194 0 0 1-.319.026c-.249.003-.497.001-.746.001H0zM8.143 5.452V4.406a.737.737 0 0 0-.015-.155c-.024-.108-.089-.157-.199-.152-.072.003-.142.013-.198.069-.058.057-.068.13-.068.206v1.077h-.45V3.862h.45v.183c.035-.03.065-.056.098-.08a.66.66 0 0 1 .605-.104.341.341 0 0 1 .224.208c.061-.05.12-.102.185-.147a.541.541 0 0 1 .588-.012.35.35 0 0 1 .156.261c.007.055.01.11.01.165v1.115h-.46V4.397c0-.041-.002-.083-.007-.124a.187.187 0 0 0-.202-.175.307.307 0 0 0-.179.054c-.074.055-.09.133-.09.216v1.083h-.448z" fill="#0D4942"></path><path fill-rule="evenodd" clip-rule="evenodd" d="M3.581 1.575V.734c.033.004.066.007.098.014l.446.092.4.081.297.062.304.064.324.068c.09.02.182.037.273.056.15.03.3.062.451.094l.3.066.367.076.424.088c.066.013.131.029.197.043l.171.037-.274.001H3.621l-.04-.001z" fill="#F8A828"></path><path fill-rule="evenodd" clip-rule="evenodd" d="M4.241 5.453h-.45V3.865h.449v.18l.039-.035a.584.584 0 0 1 .292-.164.653.653 0 0 1 .36.023c.14.054.215.161.236.307.008.057.01.114.01.17v1.107h-.449v-1.01c0-.055-.004-.11-.012-.164-.022-.144-.125-.19-.244-.178-.08.008-.151.04-.195.112a.325.325 0 0 0-.036.175v1.065zM12.042 5.453h-.453V3.865h.451v.18l.032-.029a.603.603 0 0 1 .299-.17.673.673 0 0 1 .342.017c.152.05.232.161.253.316.008.064.012.128.012.193v1.081h-.451V4.445c0-.053-.004-.106-.01-.158-.018-.14-.113-.198-.24-.186a.326.326 0 0 0-.102.027c-.093.041-.128.12-.132.216v1.109zM3.073 4.675c-.083.01-.158.016-.233.028a.427.427 0 0 0-.113.032c-.124.057-.174.158-.153.302.02.122.082.18.203.187.149.008.264-.067.282-.202.014-.112.01-.228.014-.347zm0-.205c-.004-.084-.003-.167-.013-.248-.012-.098-.078-.15-.185-.16-.162-.014-.265.072-.28.235l-.007.063h-.391a.456.456 0 0 1 .228-.45.802.802 0 0 1 .339-.086c.14-.009.277.001.414.037a.398.398 0 0 1 .298.349c.004.043.007.087.007.13v1.113H3.05v-.098l-.023.014a.769.769 0 0 1-.605.108.366.366 0 0 1-.285-.273.564.564 0 0 1 .012-.387.451.451 0 0 1 .32-.26c.123-.032.251-.046.377-.065.073-.01.147-.015.225-.022zM6.47 4.681c-.09 0-.261.017-.334.049-.079.033-.138.084-.159.17a.346.346 0 0 0 .01.2.175.175 0 0 0 .143.12.452.452 0 0 0 .102 0c.119-.007.212-.086.225-.2.012-.113.009-.226.012-.339zm-.009-.21c0-.08.004-.156-.001-.231-.007-.11-.074-.166-.182-.176-.155-.015-.273.058-.287.233-.001.02-.004.04-.007.065h-.391a.45.45 0 0 1 .088-.329.511.511 0 0 1 .33-.19c.18-.032.36-.029.538.01a.4.4 0 0 1 .323.355c.004.038.007.075.007.112V5.452h-.43v-.1a.784.784 0 0 1-.64.122.375.375 0 0 1-.276-.279.575.575 0 0 1 .004-.352.451.451 0 0 1 .334-.288c.123-.03.251-.045.377-.063.07-.01.143-.015.213-.021zM10.862 4.637c0-.124 0-.25-.033-.371-.026-.1-.083-.179-.193-.197-.113-.02-.213.008-.276.11a.449.449 0 0 0-.058.153 2.208 2.208 0 0 0-.012.622.555.555 0 0 0 .034.135c.08.213.337.2.431.086a.366.366 0 0 0 .074-.156c.028-.126.034-.253.033-.382zm.462.027c0 .125-.01.248-.046.367a.61.61 0 0 1-.474.438.999.999 0 0 1-.586-.035.577.577 0 0 1-.374-.437 1.489 1.489 0 0 1-.028-.415c.005-.108.02-.214.055-.315a.624.624 0 0 1 .393-.391.976.976 0 0 1 .592-.024c.244.066.394.23.442.478.02.11.024.222.034.333l-.008.001z" fill="#0D4942"></path><path fill-rule="evenodd" clip-rule="evenodd" d="M7.633 1.575a16.608 16.608 0 0 1-.172-.037c-.065-.014-.13-.03-.196-.043l-.424-.088-.368-.076c-.1-.021-.199-.044-.299-.066l-.452-.094-.272-.056c-.109-.022-.217-.046-.325-.069L4.822.983 4.525.922l-.4-.082-.446-.092C3.647.742 3.613.738 3.58.733L3.576.728c.002-.013.006-.026.006-.039V0c.032.01.061.019.09.03l.35.136c.08.031.161.065.242.096l.409.154c.074.028.147.059.22.087l.31.121.383.15.353.135c.13.05.258.101.388.15.13.052.258.101.388.151.146.056.294.11.44.168l.33.132c.054.021.109.04.163.064h-.015zM7.722 1.59l.036.011-.036-.01z" fill="#FDC938"></path></svg>