<?xml version="1.0" standalone="no"?>
<!DOCTYPE svg PUBLIC "-//W3C//DTD SVG 20010904//EN"
 "http://www.w3.org/TR/2001/REC-SVG-20010904/DTD/svg10.dtd">
<svg version="1.0" xmlns="http://www.w3.org/2000/svg"
 width="740.000000pt" height="740.000000pt" viewBox="0 0 740.000000 740.000000"
 preserveAspectRatio="xMidYMid meet">

<g transform="translate(0.000000,740.000000) scale(0.100000,-0.100000)"
fill="#000000" stroke="none">
<path d="M3470 6514 c-434 -53 -695 -126 -1026 -289 -775 -381 -1338 -1115
-1508 -1965 -45 -224 -59 -391 -53 -625 10 -366 70 -663 198 -984 322 -805
1006 -1424 1837 -1661 996 -284 2049 -13 2777 715 732 732 1000 1787 711 2793
-108 375 -319 759 -579 1055 -38 42 -73 75 -78 71 -5 -3 -9 -2 -8 3 4 23 -10
40 -118 138 -450 409 -972 654 -1568 735 -82 11 -522 22 -585 14z m547 -926
c100 -36 197 -103 294 -206 111 -117 135 -163 154 -294 8 -58 21 -134 29 -169
16 -67 9 -125 -17 -157 -10 -13 -35 -189 -37 -254 0 -21 4 -25 20 -21 30 8 58
-23 66 -73 7 -52 -48 -342 -75 -389 -12 -22 -27 -31 -51 -35 l-34 -5 -18 -92
c-31 -156 -50 -195 -146 -295 l-85 -88 6 -88 c11 -153 18 -183 41 -192 12 -4
80 -29 151 -55 252 -92 492 -220 577 -307 108 -111 189 -324 204 -539 14 -189
-68 -306 -268 -380 -289 -107 -660 -159 -1127 -159 -438 0 -731 36 -1031 127
-155 46 -228 83 -279 139 -86 92 -107 197 -76 371 32 177 85 311 165 412 83
104 347 248 655 356 l120 43 12 88 c6 49 12 111 12 138 1 49 0 51 -78 130 -96
100 -118 141 -146 281 l-22 110 -34 5 c-23 4 -38 14 -51 36 -26 44 -80 318
-75 377 5 56 31 90 64 84 27 -5 27 -5 9 143 -7 58 -19 119 -28 135 -25 50 -29
93 -13 163 9 36 22 110 29 163 18 126 42 172 146 282 133 141 250 213 383 236
28 6 149 9 267 7 202 -2 219 -4 287 -28z"/>
</g>
</svg>
