 <svg xmlns="http://www.w3.org/2000/svg" xmlns:xlink="http://www.w3.org/1999/xlink" height="24" viewBox="0 0 82 24" width="82" class="injected-svg" data-src="aa13499d/static/media/mandiri.3122062e.svg"><linearGradient id="a-12" x1="8.376705%" x2="115.152619%" y1="54.290511%" y2="44.053034%"><stop offset="0" stop-color="#fcb813"></stop><stop offset=".22" stop-color="#ffca05"></stop><stop offset=".39" stop-color="#f9a51a"></stop><stop offset=".53" stop-color="#ffca05"></stop><stop offset=".65" stop-color="#f9a51a"></stop><stop offset=".65" stop-color="#faaa17"></stop><stop offset=".69" stop-color="#fdbc0d"></stop><stop offset=".72" stop-color="#fec707"></stop><stop offset=".76" stop-color="#ffca05"></stop><stop offset=".8" stop-color="#ffca05"></stop><stop offset="1" stop-color="#ffca05"></stop></linearGradient><g fill="none"><g fill="#003a70"><path d="m.82758621 15.9227586c0-1.1503448 0-2.1103448-.08275862-2.9793103h2.20965517l.09931034 1.4813793h.05793104c.6429121-1.0867981 1.82464954-1.7394466 3.08689655-1.7048276 1.22005908-.0282824 2.3277002.7090429 2.77241379 1.8455172h.04137931c.30448455-.5069504.7240887-.93506 1.22482761-1.2496551.5918865-.4098221 1.2997534-.6187009 2.0193103-.5958621 1.6551724 0 3.3103449 1.1337931 3.3103449 4.3365517v5.8924138h-2.4827587v-5.5282758c0-1.6551725-.5710345-2.6482759-1.7875862-2.6482759-.8112248.031268-1.51598014.5672791-1.7627586 1.3406896-.07199965.2703929-.11363601.5479687-.12413793.8275863v6h-2.48275862v-5.7931035c0-1.3903448-.55448276-2.3834483-1.72137931-2.3834483-.84937994.0444489-1.57711824.6226519-1.81241379 1.44-.09915016.2643912-.14690185.5452835-.14068966.8275862v5.9172414h-2.42482758z"></path><path d="m25.2 20.5489655c-.0113418.8023527.0356787 1.604468.1406897 2.4h-2.2758621l-.1655173-1.1089655h-.0662069c-.7326676.8775021-1.8284591 1.3689295-2.9710344 1.3324138-.8183113.0481063-1.6199831-.2449692-2.2143217-.8095125-.5943387-.5645433-.9282223-1.3500957-.9223093-2.1697979 0-2.4827586 2.234562-3.7986206 5.9338723-3.7737931v-.1655172c0-.6537931-.2731034-1.7462069-2.035862-1.7462069-.9461951.0012534-1.8748352.2555579-2.6896552.7365517l-.4965517-1.6551724c1.10688-.6075326 2.3542018-.9129409 3.6165517-.8855172 3.2027586 0 4.137931 2.035862 4.137931 4.2124138zm-2.4827586-2.4827586c-1.7875862-.0413793-3.4924138.3475862-3.4924138 1.8703448-.0315835.3944796.1138219.7825861.3968332 1.0592017.2830114.2766157.6743397.4131132 1.0679944.3725225.8860693.0128342 1.680316-.5444733 1.9696551-1.382069.0540011-.1770757.0818809-.3610822.0827587-.5462069z"></path><path d="m26.9462069 15.9227586c0-1.1503448 0-2.1103448-.0827586-2.9793103h2.217931l.1158621 1.5062069h.0662069c.6730694-1.1082869 1.8901454-1.7689853 3.1862069-1.7296552 1.7462069 0 3.5503448 1.1337931 3.5503448 4.2951724v5.9337931h-2.4827586v-5.6441379c0-1.44-.5379311-2.5324138-1.9117242-2.5324138-.9066424.0193077-1.6995844.6156801-1.9696551 1.4813793-.0823012.2678155-.1186771.5476298-.1075862.8275862v5.8758621h-2.582069z"></path><path d="m46.9489655 8.92965517v11.20551723c0 1.0262069.0413793 2.1351724.0827586 2.8137931h-2.2593103l-.0827586-1.5806896h-.0496552c-.6641382 1.163677-1.92198 1.8596403-3.2606897 1.8041379-2.3834482 0-4.2703448-2.0358621-4.2703448-5.1144828 0-3.3103448 2.0689655-5.337931 4.4772414-5.337931 1.1026312-.0627095 2.1597764.4470972 2.7972414 1.3489655v-5.13931033zm-2.4827586 8.18482763c-.0015203-.2195249-.0236869-.4384201-.0662069-.6537931-.2036989-1.047127-1.126411-1.7992245-2.1931034-1.7875863-1.6551725 0-2.4827587 1.44-2.4827587 3.3103449 0 1.8703448.902069 3.1613793 2.4827587 3.1613793 1.0581512-.0028611 1.9680714-.750172 2.1765517-1.7875862.0583952-.2410699.0862001-.4885339.0827586-.7365517z"></path><path d="m48.7365517 22.9489655v-10.0055172h2.5737931v10.0055172z"></path><path d="m53.0648276 16.1710345c0-1.3572414 0-2.3172414-.0827586-3.2275862h2.2013793l.0827586 1.9117241h.0827586c.3756189-1.1797962 1.4939336-1.9626165 2.7310345-1.9117241.1953124-.0207519.3922738-.0207519.5875862 0v2.2262069c-.2417027-.0547312-.4887299-.0824871-.7365517-.0827586-1.1262494-.0286029-2.0963356.7886859-2.2593104 1.9034482-.0515117.2589957-.0792134.5221621-.0827586.7862069v5.1724138h-2.4827586z"></path><path d="m59.8427586 22.9489655v-10.0055172h2.5489655v10.0055172z"></path></g><path d="m78.2317241 2.37517241c-1.257931-1.44-2.5986207-.8275862-3.657931-.26482758-.4468965.22344827-3.6827586 2.0275862-3.6827586 2.0275862-1.2591007.59999773-2.7631413.29649177-3.6910345-.74482758-.0616091-.04833661-.1171806-.10390813-.1655172-.16551724l-.1324138-.21517242c-.2073621-.37114489-.4396174-.72782278-.6951724-1.0675862-.1572414-.19034483-.3227587-.38896552-.5131035-.57931035-1.1917241-1.22482758-3.1365517-2.07724138-6.3724138-.53793103-1.5310345.88551724-6.5296552 3.74068965-6.5296552 3.74068965-1.297596.63301974-2.8601782.29034822-3.7737931-.8275862-.0220288-.02557989-.0414363-.05330487-.057931-.08275863l-.057931-.1075862-.3144828-.51310345c-.1406896-.21517241-.2896552-.43034483-.4634483-.66206897-.1566684-.20291943-.3252405-.39636289-.5048276-.57931034-1.2082758-1.21655172-3.1365517-2.06896552-6.3475862-.5462069l-6.4468965 3.71586207-3.3103448 1.88689655 1.7131034 2.10206897c1.033388 1.17998244 2.730195 1.51934384 4.137931.82758621l5.7931035-3.35172414c4.9655172-2.7062069 7.3737931-.12413793 8.4496552 1.60551724l.0993103.16551724v.05793103l.1241379.19862069c.5033097.80808392 1.3900786 1.29690349 2.342069 1.29103449.5173811-.03213909 1.0170478-.20059814 1.4482759-.48827586l5.6193103-3.2524138c4.9655173-2.7475862 7.4482759 0 8.5241379 1.73793104.0827587.14896551.182069.28965517.2731035.42206896.4828168.72528596 1.2969844 1.16033732 2.1682759 1.15862069.5108233-.03495694 1.0065749-.1879317 1.4482758-.44689655l6.6951724-3.86482759c-.6489687-.92444257-1.3566317-1.80625699-2.1186207-2.64z" fill="url(#a-12)"></path></g></svg>
