<svg xmlns="http://www.w3.org/2000/svg" height="24" viewBox="0 0 95 24" width="95" class="injected-svg" data-src="aa13499d/static/media/permata.3bc97c85.svg" xmlns:xlink="http://www.w3.org/1999/xlink"><g fill="none"><path d="m88.1131034 4.76689655 1.7544828 2.75586207 4.137931-.08275862z" fill="#589c44"></path><path d="m88.1131034 4.76689655 1.7544828 2.75586207-.8772414.46344828-1.3986207-2.95448276z" fill="#3a6c34"></path><path d="m83.8344828 23.0731034 5.155862-15.0868965-1.3986207-2.95448276-3.9144827 17.74344826z" fill="#235b2e"></path><path d="m89.8675862 7.52275862-.8772414.46344828-5.155862 15.0868965 6.2482758-14.47448271z" fill="#589c44"></path><path d="m94.0055172 7.44-4.137931.08275862.2151724 1.07586207 3.9475862-.33931035z" fill="#80b648"></path><path d="m94.0303448 8.25931034-3.9475862.33931035-6.2482758 14.47448271.4965517-.0910344z" fill="#4d7335"></path><path d="m79.2662069.09931034 3.2855172 1.25793104 4.2951725-1.35724138z" fill="#e31e2a"></path><path d="m79.2662069.09931034 3.2855172 1.25793104-.5544827.66206896-2.9462069-1.44827586z" fill="#971b26"></path><path d="m83.4868966 12.8027586-1.4896552-10.78344826-2.9462069-1.44827586 4.1875862 12.09103452z" fill="#581718"></path><path d="m82.5517241 1.35724138.8606897.66206896.0744828 10.78344826-1.4896552-10.78344826z" fill="#df1f2c"></path><path d="m82.5517241 1.35724138 4.2951725-1.35724138.5131034.51310345-3.9475862 1.50620689z" fill="#e93e4d"></path><path d="m87.36.51310345-3.9475862 1.50620689.0744828 10.78344826.2565517-.1241379z" fill="#981b28"></path><path d="m78.4634483 5.03172414-2.3006897 2.70620689-2.7806896-.12413793z" fill="#017a9b"></path><path d="m73.382069 7.6137931 2.7806896.12413793-.057931.88551725-2.7227586-.57103449z" fill="#00536d"></path><path d="m76.1048276 8.62344828 6.7696552 10.23724142-.364138-.0662069-9.1282758-10.74206901z" fill="#013b56"></path><path d="m76.1627586 7.73793103.9351724.43034483 5.7765518 10.69241384-6.7696552-10.23724142z" fill="#017a9b"></path><path d="m76.1627586 7.73793103 2.3006897-2.70620689.6951724.43862069-2.0606897 2.69793103z" fill="#1f99d6"></path><path d="m79.1586207 5.47034483 3.897931 13.05931037-.1820689.3310345-5.7765518-10.69241384z" fill="#00536d"></path><g fill="#231f20"><path d="m2.93793103 21.4593103c0 1.084138.10758621 1.1917242 1.14206897 1.2248276v.3062069h-3.76551724v-.3062069c.97655172 0 1.06758621-.1406896 1.06758621-1.2248276v-5.7931034c0-1.0841379-.09103449-1.1917241-1.0262069-1.2413793v-.3558621h3.59172414c2.43310345 0 3.49241379.7448276 3.49241379 2.4827586.10989165 1.0503076-.52245357 2.0366287-1.52275862 2.3751725-.77905122.2270119-1.58890637.3303382-2.4.3062068h-.57931035zm.62068966-2.5655172c.59367802.0530022 1.18531945-.1215321 1.65517241-.4882759.41777662-.4948478.62566142-1.1333511.57931035-1.7793103 0-1.4648276-.70344828-2.2096552-2.08551724-2.2096552h-.76965518v4.4772414z"></path><path d="m9.25241379 19.6303448c-.02561052.6438722.08143317 1.2861344.31448276 1.8868966.23458334.7132417.90439465 1.1921568 1.65517245 1.1834483.8503634-.0423403 1.6021025-.5659876 1.9365517-1.3489656l.297931.1903449c-.4401414 1.0478903-1.488155 1.7090976-2.6234483 1.6551724-.86635589.0423983-1.70836919-.2938199-2.30724508-.9212893-.59887589-.6274695-.89548521-1.4842378-.81275487-2.3476762 0-2.0027587 1.18344827-3.3103449 2.99586205-3.3103449 1.0878251-.0971191 2.1055803.5474592 2.4827586 1.5724138.1592035.4713695.2320942.9675866.2151725 1.4648276zm2.64827591-.3475862c.0146906-.5040205-.0523855-1.0070914-.1986207-1.4896552-.2317242-.6289655-.5627587-.9268965-1.0262069-.9268965-.4634483 0-.91034486.3558621-1.15862072 1.0510345-.14627649.441305-.22985129.9009664-.24827586 1.3655172z"></path><path d="m16.1627586 16.6096552v.9682758.3558621c.2902174-.7416941.9704974-1.2590902 1.7627586-1.3406897.2558103-.0204724.5089222.0641466.7009867.2343501s.3065067.4113031.3169444.6677189c-.0105503.2072978-.104382.4015463-.2602047.5386703-.1558226.1371239-.3604247.2054971-.5673815.1896056-.2586307.0413855-.504934-.1252315-.5627587-.3806897-.0910344-.3310345-.1489655-.4220689-.3393103-.4220689-.3009371.0688877-.5503821.2782984-.6703448.5627586-.208359.4092891-.3080974.865236-.2896552 1.3241379v2.2096552c0 1.0675862.0744828 1.1503448.96 1.1917241v.2813793h-3.3103448v-.2813793c.8275862 0 .9103448-.1324138.9103448-1.1917241v-3.3103448c0-1.0179311-.1075862-1.1586207-.8275862-1.1586207v-.2896552z"></path><path d="m21.5834483 17.7931034c.4167438-.7538304 1.2160251-1.2155666 2.0772414-1.2.8044518-.0880555 1.542088.4552766 1.6965517 1.2496552.38129-.7817106 1.1829035-1.2697898 2.0524138-1.2496552.5982024-.0438437 1.178803.213856 1.5475862.6868966.29514.4832455.4203893 1.0512363.355862 1.6137931v2.6234483c0 1.0593103.0827587 1.1751724.9103449 1.1917241v.2813793h-3.2358621v-.2813793c.8275862 0 .8275862-.1324138.8275862-1.1917241v-2.6151724c0-1.2662069-.2813793-1.7627587-.9848276-1.7627587-.4468348.0052773-.8542729.256743-1.0593103.6537931-.2398132.3679434-.3557969.8028825-.3310345 1.2413794v2.4827586c0 1.0593103.0827586 1.1751724.8855172 1.1917241v.2813793h-3.2027586v-.2813793c.7862069 0 .8772414-.1324138.8772414-1.1917241v-2.6234483c0-1.1917241-.3144828-1.7544828-.9682759-1.7544828-.7862069 0-1.4482758.8772414-1.4482758 1.9531035v2.4248276c0 1.0675862.0910345 1.1751724.8772414 1.1917241v.2813793h-3.2358621v-.2813793c.8275862 0 .9103448-.1241379.9103448-1.1917241v-3.3103448c0-1.0013794-.0993103-1.1337932-.8855172-1.142069v-.2896552l2.3255172-.1572414z"></path><path d="m36.6703448 22.9572414c-.7034482.0827586-1.3324138.1406896-1.6551724.1406896s-.5048276-.1737931-.5627586-.9020689c-.4977863.6098578-1.2404163.9675327-2.0275862.9765517-.4835156.0448701-.9623444-.1248496-1.3096706-.4642096-.3473261-.33936-.5281084-.8141226-.4944673-1.298549 0-1.0262069.6372413-1.6634483 1.9117241-1.9117242.6450639-.119692 1.2976744-.1943551 1.9531034-.2234482v-.7779311c0-1.2662069-.2151724-1.6551724-.9268965-1.6551724-.3325686-.0451415-.6594706.1150404-.8275862.4055173-.1257829.2577179-.1908945.5408118-.1903448.8275862 0 .4303448-.2234483.5875862-.7282759.5875862s-.8275862-.1903449-.8275862-.5544828c.0380464-.4718701.3163619-.890907.7365517-1.1089655.5970679-.3270106 1.2732412-.4817282 1.9531035-.4468966.6306512-.0646566 1.2626167.1095769 1.7710344.4882759.3566099.4029724.5251037.9385419.4634483 1.4731034v1.0427587 1.0344827.6455173c0 1.3075862.0496552 1.3820689.8275862 1.3903448zm-2.217931-3.4096552c-1.7296552.1324138-2.3337931.5710345-2.3337931 1.6551724 0 .8275862.3806896 1.4068966.9682759 1.4068966.5141122-.021958.9660921-.3471234 1.1503448-.8275862.1794669-.4373429.2531891-.9108664.2151724-1.382069z"></path><path d="m39.2937931 21.1365517c-.0179584.3602789.0239906.7210406.1241379 1.0675862.0798276.2560255.3114073.4346727.5793104.4468966.3095878-.0287004.6007865-.1597398.8275862-.3724138l.1737931.297931c-.4605075.3939772-1.0492152.605912-1.6551724.5958621-.536239.0498298-1.055843-.2020028-1.3489655-.6537931-.1814872-.5316736-.2408882-1.0973977-.1737931-1.6551724v-3.724138h-.6786207v-.355862c.4622637.0131694.8944791-.2283627 1.1255172-.6289655.2430736-.3819111.4037422-.8103606.4717241-1.2579311l.5958621-.0662069c0 .4882759-.0413793.8275862-.0413793 1.9448276h1.4482759v.3806897h-1.4482759z"></path><path d="m47.2717241 22.9572414c-.7034482.0827586-1.3324138.1406896-1.6551724.1406896s-.5048276-.1737931-.5627586-.9020689c-.4952099.6085735-1.2347798.9662344-2.0193103.9765517-.4873955.0550339-.9740973-.1089383-1.3288253-.4476876-.354728-.3387492-.5409429-.8173822-.5084161-1.3067952 0-1.0262069.6289655-1.6551724 1.9034483-1.9117241.6450639-.1196921 1.2976743-.1943551 1.9531034-.2234483v-.777931c0-1.2662069-.2068965-1.6551724-.9268965-1.6551724-.3325687-.0451415-.6594706.1150404-.8275863.4055172-.1331269.2553794-.2013407.5396036-.1986206.8275862 0 .4303448-.2234483.5875862-.72.5875862-.4965518 0-.8275863-.1903448-.8275863-.5544827.0380465-.4718702.316362-.890907.7365518-1.1089655.5973776-.3261943 1.2733172-.4808585 1.9531034-.4468966.6306513-.0646566 1.2626168.1095769 1.7710345.4882759.3604157.4008105.5294617.9381354.4634483 1.4731034v1.0427586 1.0344828.6455172c0 1.3075862.0413793 1.382069.8275862 1.3903449zm-2.217931-3.4096552c-1.7213793.1324138-2.3337931.5710345-2.3337931 1.6551724 0 .8275862.3806897 1.4068966.9682759 1.4068966.5149912-.0250442.967906-.3485548 1.1586207-.8275862.1717466-.4393422.2424578-.9116928.2068965-1.382069z"></path><path d="m48.4717241 22.5517241c.4055173 0 .6372414-.057931.7448276-.1820689.1075862-.124138.1324138-.1489655.1572414-1.0427586v-5.6027587c.0171985-.2964316-.002259-.5938528-.057931-.8855172-.0827587-.2482759-.2979311-.3393104-.8275862-.3393104v-.2896551h3.235862c.7467486-.0289709 1.4919094.08913 2.1931035.3475862.6647994.2708184 1.0792521.9392904 1.0262069 1.6551724 0 1.1337931-.7282759 1.7627586-2.2262069 1.9531034v.0413794c.4744134-.0029817.9426428.1076907 1.3655172.3227586.7603927.3403755 1.2337006 1.1127876 1.1917242 1.9448276.064721 1.0057789-.6132994 1.9086351-1.5972414 2.1268965-.6583634.1575536-1.3342409.2298697-2.0110345.2151724h-3.1944828zm3.1696552-4.5351724c1.4317241 0 2.1682759-.6041379 2.1682759-1.7710345 0-1.1668965-.7365518-1.6965517-2.2758621-1.6965517h-1.1006897v3.4675862zm-.0496552 4.4606897c.6617791.0661503 1.3253502-.1070828 1.8703449-.4882759.4269685-.4099871.6459412-.990873.595862-1.5806896.0628453-.690292-.2790299-1.3546911-.8772413-1.7048276-.5018549-.2124106-1.0444409-.3113195-1.5889656-.2896552h-1.1586207v4.0634483z"></path><path d="m61.8041379 22.8165517c-.4085697.0614422-.8202394.1001226-1.2331034.1158621-.3558621 0-.4468966-.1903448-.4965517-.9848276-.1741064.194456-.3714471.3667817-.5875862.5131035-.438466.3495637-.9871313.5314742-1.5475863.5131034-.4371964.0269495-.8693606-.1053457-1.2165517-.3724138-.3444592-.330387-.5362809-.7889608-.5296552-1.2662069 0-.9434483.604138-1.5475862 1.7544828-1.8124138.7006648-.1499455 1.4116513-.2467725 2.1268966-.2896552v-.7448275c.0280521-.3692665-.0285582-.7400641-.1655173-1.084138-.204613-.3398057-.5918039-.5252669-.9848276-.4717241-.3163846-.0499593-.6384832.0447764-.877439.2580725-.2389559.2132962-.3695165.522612-.3556644.8426171 0 .2482759 0 .3310345-.1324138.4055173-.1301558.0671577-.2758026.0985717-.422069.0910345-.4055172 0-.5793103-.1075862-.5793103-.3558621.0496696-.5020965.3659193-.9385211.8275862-1.142069.5380971-.2709756 1.1358296-.4019075 1.737931-.3806896.582986-.067599 1.1664126.1228459 1.5972414.5213793.2715384.3944943.3946724.8723716.3475862 1.3489655v1.2082759 1.1255172.5544828c-.0233341.3474348.0216517.6960748.1324138 1.0262069.0744828.0910345.2151724.1324138.6703448.1324138zm-1.7296551-3.3103448c-.6888677.0074214-1.3694832.1508569-2.0027587.422069-.5324545.2393841-.8617528.7827263-.8275862 1.3655172 0 .7531035.4055173 1.2662069 1.0013793 1.2662069.6265571-.0121622 1.2037007-.3428499 1.5310345-.8772414.2298651-.5196546.323843-1.089218.2731035-1.6551724z"></path><path d="m64.4027586 17.9172414c.3658598-.821094 1.2051898-1.3266746 2.102069-1.2662069.6155413-.0646915 1.2157452.2194476 1.5558621.7365517.2556513.4523482.3654761.9725709.3144827 1.4896552v2.4827586c0 1.1172414.057931 1.2.8275862 1.2248276v.2648276h-2.6648276v-.2648276c.3889656 0 .604138-.057931.7034483-.182069.0835935-.1117785.1246659-.2496644.1158621-.3889655 0-.1324138 0-.5710345 0-.6537931v-2.4082759c.0228449-.4387117-.0418604-.8775828-.1903448-1.2910344-.1832735-.4097698-.6032999-.6611243-1.0510345-.6289656-.568421.0040534-1.087807.3226951-1.3489655.8275862-.259928.4418255-.39973.9439713-.4055173 1.4565518v2.0689655c0 1.1172414.057931 1.2.8689655 1.2248276v.2648276h-2.6731034v-.2648276c.8275862 0 .8275862-.1158621.8275862-1.2248276v-3.2358621c0-.8937931-.1489655-1.0675862-.8275862-1.0675862v-.2648276l1.8041379-.1324138z"></path><path d="m71.6524138 21.3517241c0 1.1089656.057931 1.2.8275862 1.2248276v.2648276h-2.6234483v-.2648276c.8275862 0 .8275862-.115862.8275862-1.2248276v-5.7931034c0-1.017931-.0496551-1.0758621-.8275862-1.0841379v-.2648276l1.8703449-.1406897c-.0496552.8275862-.0744828 1.7710345-.0744828 2.3917242v3.7737931l1.8703448-2.0275862c.2187919-.1950879.3671424-.4568829.422069-.7448276 0-.2482759-.2317242-.364138-.7531035-.3889656v-.2648275h2.6317242v.2648275c-.2928486.0156777-.5772204.103833-.8275862.2565518-.450665.2819214-.8461066.6437084-1.1668966 1.0675862l-.6206896.6620689 1.6551724 2.6234483c.4055172.6455173.6041379.8275862 1.1255172.8855173v.2648275h-1.6551724c-.1158621-.2565517-.4965517-.9351724-.6206897-1.1503448l-1.2082758-1.977931-.9351724 1.0344827z"></path></g></g></svg>